<?xml version="1.0" encoding="utf-8"?>
<!-- Generator: Adobe Illustrator 16.0.0, SVG Export Plug-In . SVG Version: 6.00 Build 0)  -->
<svg version="1.2" baseProfile="tiny" id="Layer_1" xmlns="http://www.w3.org/2000/svg" xmlns:xlink="http://www.w3.org/1999/xlink"
	 x="0px" y="0px" width="723.61px" height="316.668px" viewBox="0 0 723.61 316.668" xml:space="preserve">
<g>
	<path fill-rule="evenodd" fill="#53042E" d="M591.787,105.115c-0.033-1.244-0.462-2.559-1.435-3.953
		c-0.543-0.776-1.078-1.562-1.613-2.348c-3.927-4.785-8.127-9.367-13.649-11.91c-0.415,0.271-0.962,0.322-1.542,0.057
		c-4.429-2.026-7.613-5.601-10.282-9.566c2.651,9.121,6.203,17.491,15.952,21.474c2.582,0.15,5.628,0.792,7.898,1.949
		C589.222,101.582,590.833,103.181,591.787,105.115z"/>
	<path fill-rule="evenodd" fill="#53042E" d="M585.856,107.045c0.759,1.031,1.979,1.578,2.77,2.567
		c0.147,0.185,0.297,0.393,0.442,0.617c0.12,0.03,0.241,0.06,0.361,0.09c0.121-0.126,0.229-0.257,0.343-0.385
		c0.181-1.102-0.002-2.218-0.543-3.236c-0.953-1.433-2.095-2.696-3.787-3.238c-0.155-0.018-0.311-0.035-0.471-0.023
		c-0.002,0.008-0.004,0.016-0.005,0.024c0.001,0.012,0.003,0.023,0.002,0.036c-0.016,0.388-0.068,0.795-0.127,1.207
		C585.077,105.567,585.396,106.419,585.856,107.045z"/>
	<path fill-rule="evenodd" fill="#53042E" d="M367.76,168.888c0.08-4.76,1.623-9.017,3.549-13.451
		c3.011-6.935,2.727-12.099-1.629-17.797c0.946,4.062,0.18,8.732-1.332,14.286c-1.797,6.594-4.185,13.041-6.465,19.492
		c-2.72,7.676,1.067,12.414,8.442,18.024C367.65,181.708,364.372,175.269,367.76,168.888z"/>
	<path fill-rule="evenodd" fill="#53042E" d="M723.61,167.778c-1.296-2.27-2.917-4.166-4.701-5.896
		c-31.272-30.283-62.963-60.153-93.687-90.987C610.035,55.65,593.6,42.51,574.887,32.105c-3.9-2.171-8.02-3.966-12.135-5.719
		c-3.174-1.353-5.49-0.675-7.521,2.664c-5.534,9.107-12.544,17.085-19.469,25.196c-6.468,7.566-13.302,15.021-16.698,25.043
		c-4.203,12.424-11.311,23.575-20.979,32.453c-4.618,4.24-7.038,9.137-9.248,14.498c-7.261,17.6-17.049,33.716-28.464,48.883
		c-6.423,8.533-16.368,8.248-21.053-1.07c-8.524-16.949-20.012-31.388-34.279-43.829c-6.408-5.587-12.198-11.886-18.319-17.808
		c-1.84-1.778-3.184-3.465-1.406-6.086c6.824-10.092,15.648-18.38,23.876-27.527c0.343,3.875,1.824,7.953,4.414,8.133
		c4.219,0.287,5.101,2.678,5.694,5.2c5.556,7.259,6.735,15.664,6.954,24.601c0.509,0.519,1.186,0.954,2.13,1.254
		c0.646-2.423,1.417-4.654,1.83-6.949c2.347-13.021,4.587-26.059,6.928-39.077c0.353-1.964,0.203-4.81,2.692-5.052
		c2.014-0.194,2.515,2.424,3.371,4.068c2.307,4.414,2.323,4.408,7.154,5.928c-2.058-6.522-5.755-12.363-3.794-19.315
		c0.776-2.755,0.557-6.421,4.161-6.335c3.979,0.094,3.439,4.015,3.293,6.668c-0.74,13.219-1.384,26.459-3.497,39.551
		c-0.897,5.541-2.171,11.016-3.274,16.521c6.122-14.172,12.792-28.029,14.509-43.574c0.437-3.969,0.503-8.493,4.478-11.54
		c5.811-4.458,11.451-9.166,16.922-14.04c4.29-3.823,6.817-3.674,9.284,2.012c3.693,8.51,11.208,16.077,19.152,19.226
		c-15.148-18.717-22.644-43.75-44.669-56.75h-7.097c-11.729,12-21.909,24.613-32.754,37.015
		c-15.262,17.453-30.307,35.092-45.585,52.532c-1.377,1.57-2.801,5.769-5.881,2.7c-9.198-9.177-22.196-11.354-32.63-18.282
		c-7.952-5.281-14.012-3.787-20.396,3.431c-8.635,9.765-16.1,20.436-23.681,30.999c-2.249,3.139-3.706,3.727-7.093,1.261
		c-5.327-3.876-11.546-6.548-16.796-10.513c-4.891-3.688-7.471-2.291-10.571,2.145c-5.971,8.544-11.221,17.492-16.271,26.587
		c-7.886,14.202-17.752,27.005-27.971,40.553c-4.474-8.652-9.067-16.015-15.081-22.426c-16.249-17.333-34.611-32.224-53.696-46.234
		c-5.135-3.771-10.755-3.298-15.396,1.389c-2.646,2.673-4.987,5.685-7.26,8.7c-10.675,14.156-25.7,31.783-38.07,44.632
		c-19.613,20.362-37.338,34.058-58.904,52.126c-3.268,2.736-6.531,5.426-8.614,9.287c-6.06,11.227-12.271,22.369-18.269,33.627
		c-2.01,3.77-4.387,7.492-4.91,13.301c4.217-3.931,7.494-6.963,10.749-10.021c7.02-6.595,13.658-13.216,23.125-17.054
		c9.154-3.712,17.084-9.576,22.176-19.446c5.611-10.876,14.451-19.856,23.736-28.028c4.99-4.398,10.294-8.453,17.458-10.535
		c-1.753,8.547-3.334,16.24-4.91,23.93c-1.811-4.293-2.491-8.426-3.347-12.52c-0.657-3.143-2.197-5.072-5.108-1.951
		c-9.948,10.661-21.346,20.312-26.583,34.494c-2.054,5.559-5.49,9.16-10.634,11.598c-6.404,3.029-12.942,5.844-19.082,9.348
		c-6.475,3.693-11.531,8.915-13.958,16.295c-0.657,2.004-0.764,3.496,1,5.018c1.62,1.396,3.044,0.844,4.543,0.107
		c3.601-1.768,7.234-3.485,10.752-5.416c7.701-4.232,15.342-8.586,23.005-12.887c-6.803,7.31-15.718,11.999-22.178,21.158
		c10.538-1.644,19.858-3.109,29.179-4.547c2.011-0.312,4.361-1.447,5.314,1.613c1.954,6.277,6.3,4.521,10.291,2.887
		c5.244-2.15,7.675-6.932,9.442-11.854c5.684-15.803,10.091-31.953,12.901-48.539c1.538-9.075,2.114-18.389,5.538-28.801
		c1.753,4.004,1.16,6.214,0.733,8.461c-2.373,12.537-4.887,25.051-6.993,37.629c-2.011,12.011-2.037,24.31-8.562,35.437
		c-2.32,3.958-3.414,9.678-0.647,15.132c5.951-4.049,8.751-10.438,13.808-14.662c0.857-0.719,1.577-1.997,2.915-1.332
		c1.246,0.618,1.117,1.963,1.029,3.143c-0.426,5.897,5.01,1.92,4.939,7.823c-0.037,2.962-2.143,7.957,1.924,8.443
		c3.281,0.392,3.018-4.796,3.17-7.622c1.237-23.014,2.101-34.113,15.429-52.953c0.747-1.061,1.851-2.268,0.507-4.043
		c-7.341,3.047-9.868,11.373-16.519,15.878c-0.86-12.368,1.06-23.849,1.894-35.384c0.766-10.596,2.663-21.285,0.27-31.771
		c-0.831-3.628-0.5-6.198,1.064-9.241c3.746-7.288,4.55-8.583,5.566-17.146c-15.921,17.207-24.222,33.052-47.902,44
		c0.968-1.672,1.16-2.344,1.604-2.732c21.585-18.871,38.354-41.703,54.039-65.457c2.364-3.574,4.49-10.038,8.298-9.212
		c3.696,0.804,5.05,7.21,6.697,11.614c7.134,19.1,10.4,39.217,15.675,58.803c0.866,3.219,1.027,6.881,4.808,10.071
		c-0.141-12.522-3.098-23.741-3.245-35.271c20.953,48.477,38.148,98.021,47.472,150.17c-3.934-2.926-6.747-6.31-9.287-9.88
		c-8.488-11.958-16.689-24.119-25.36-35.938c-6.997-9.531-14.595-18.592-23.486-26.503c-3.581-3.187-5.127-2.521-5.661,2.06
		c-1.267,10.828-5.933,20.35-11.641,29.408c-4.031,6.398-8.361,12.61-12.465,18.961c-2.817,4.363-2.117,7.059,3.647,7.289
		c6.617,0.262,13.242,0.516,19.843,1.055c7.028,0.578,13.447,2.732,17.902,8.702c5.144,6.896,12.345,10.118,20.549,11.27
		c8.184,1.151,16.579,1.241,24.583,3.095c5.72,1.324,6.82-1.061,7.102-5.406c0.321-4.962,0.113-9.908-0.804-14.838
		c-3.044-16.283-7.491-32.184-12.756-47.877c-3.667-10.937-7.187-21.926-10.964-33.48c1.546,0.109,2.41,0.146,3.274,0.232
		c7.961,0.768,8.18,0.518,6.098-7.343c-1.934-7.306-4.075-14.563-5.765-21.925c-0.616-2.676-2.21-5.709,0.34-8.859
		c22.22,28.984,39.309,60.61,56.797,92.033c-4.91-14.314-13.318-27.031-17.466-41.803c15.648,12.9,26.04,30.451,40.505,44.385
		c-1.573-4.264-3.71-8.109-6.034-11.842c-15.088-24.299-30.22-48.572-45.317-72.865c-1.571-2.527-3.834-4.809-0.238-7.869
		c6.849-5.827,13.196-12.221,18.897-19.197c1.626-1.988,3.029-2.506,5.233-0.801c20.298,15.703,43.317,28.244,58.183,50.263
		c1.037,1.54,2.427,3.044,4,3.97c6.724,3.946,10.219,10.199,13.179,17.061c2.42,5.618,4.354,11.547,8.265,16.408
		c4.644,5.771,7.69,5.577,11.97-0.385c4.948-6.879,8.262-14.92,14.712-20.731c1.874-1.688,1.054-3.747,0-5.105
		c-1.649-2.126-2.94,0.192-3.906,1.138c-4.397,4.299-8.537,8.862-12.948,13.146c-4.633,4.497-7.784,3.984-11.07-1.679
		c-0.938-1.616-1.645-3.417-2.158-5.218c-2.644-9.25-5.674-18.04-16.124-21.619c-2.001-0.686-3.552-3.059-4.998-4.898
		c-9.979-12.711-17.495-26.932-24.739-41.271c-1.207-2.383-6.584-5.599,0.072-8.547c1.331-0.592-0.202-2.43-1.303-3.376
		c-8.527-7.341-7.47-17.404-8.147-23.764c5.671,4.69,12.987,10.592,20.129,16.7c4.135,3.529,7.721,8.213,13.006,9.637
		c10.65,2.871,13.584,10.678,14.338,20.172c0.136,1.73,0.526,2.757,2.113,2.994c2.3,0.344,5.08,1.396,6.771-0.514
		c1.65-1.867-0.343-4.045-1.257-5.842c-6.147-12.086-14.874-22.438-22.716-33.383c-6.16-8.597-6.254-9.014-0.047-17.162
		c4.873-6.395,9.765-12.776,14.672-19.146c1.583-2.054,3.478-3.601,5.781-5.008c4.604-2.818,7.011-2.386,8.171,3.192
		c2.726,13.135,10.593,22.391,22.218,28.703c1.035,0.562,1.885,1.455,2.914,2.02c4.051,2.229,6.663,4.631,8.218,7.305
		c0.509-0.649,1.456-0.93,2.161-0.138c4.241,4.762,7.658,10.488,5.826,17.065c-1.711,6.145-5.048,11.296-5.394,17.634
		c3.027,5.655,5.935,11.252,10.392,15.62c4.841,4.748,8.048,10.18,10.896,16.27c8.201,17.555,16.959,34.86,28.041,50.846
		c3.794,5.475,8.574,9.772,16.338,12.4c-0.354-1.189-0.73-2.364-1.115-3.532c-5.153-3.919-8.621-10.328-11.18-16.014
		c-0.055-0.12-0.109-0.244-0.164-0.365c-4.402-7.237-7.473-15.118-7.6-23.763c-2.478-4.43-4.966-8.845-7.374-13.307
		c4.45,2.393,8.692,4.94,12.843,7.559c1.52,0.115,2.979,0.823,3.81,2.14c0.688,0.306,1.278,0.779,1.708,1.405
		c1.362,0.89,2.722,1.781,4.078,2.677c2.724,1.798,5.438,3.374,7.998-0.106c2.511-3.42,5.65-6.627,7.194-10.457
		c6.403-15.922,16.795-29.495,25.437-44.076c18.787-31.705,38.048-63.133,57.199-94.621c2.261-3.719,4.201-7.855,8.385-10.064
		c-1.021,3.518-2.501,6.688-4.224,9.717c-11.414,20.046-20.923,40.987-30.155,62.059c0.048,13.576-7.035,25.062-14.108,36.295
		c2.03,1.447,3.64-0.883,5.031-2.053c5.004-4.207,8.646-9.68,13.695-15.848c-2.647,7.177-5.22,13.739-7.567,20.144
		c0.876,0.017,1.744,0.213,2.473,0.62c8.145,4.554,13.333,15.351,12.148,24.661c0.869,1.085,1.555,2.591,1.978,4.699
		c1.544-21.767,9.472-40.807,16.085-60.272c-1.813,11.543,3.994,23.391-1.88,34.796c-1.121,2.17-4.754,6.254-0.633,7.755
		c3.423,1.248,3.67-3.791,4.797-6.416c0.276-0.641,0.51-0.801,1.549,0.162c0.705,1.451,1.615,3.611,2.768,5.636
		c2.477,4.36,5.434,8.339,9.98,10.783c0.593,0.317,1.203,0.63,1.818,0.892c-0.982-9.898-1.237-19.719,1.021-29.593
		c-0.122-0.645-0.126-1.352,0.024-2.114c1.03-5.219,3.188-10.006,5.524-14.732c0.32-1.903,1.062-3.722,2.521-5.047
		c1.012-0.919,2.279-1.55,3.62-1.836c0.458-0.223,0.948-0.341,1.471-0.362c4.394-1.703,8.842-0.735,12.22,2.771
		c0.255,0.264,0.468,0.537,0.65,0.815c1.568-0.964,2.806-2.961,3.771-5.989c1.248-3.917,1.248-7.906,0.511-11.93
		c-1.291-7.082-3.975-13.664-7.965-19.572c-8.58-12.706-14.147-26.605-17.495-41.495c-0.333-1.483-1.1-2.687,1.457-3.224
		c0.651,2.095,1.338,4.184,1.995,6.28c0.443,0.01,0.88,0.222,1.169,0.727c2.931,5.124,6.003,10.622,11.053,13.827
		c0.082-2.464-0.091-4.931-0.015-7.403c0.011-0.35,0.153-0.661,0.369-0.91c0.543-5.806,1.066-11.615,1.497-17.429
		c0.227-3.055,0.05-5.573-3.083-7.913c-4.688-3.499-6.23-9.292-7.618-14.843c-0.349-1.4-0.457-3.27,1.214-3.574
		c2.728-0.492,4.823,1.484,6.971,2.865c0.537,0.342,2.097,1.423,0.934,1.787c-6.278,1.983-1.185,5.06-0.32,6.653
		c4.164,7.671,7.067,15.659,6.014,24.384c-1.479,12.251,3.301,21.588,12.111,29.445c3.881,3.461,7.691,7.002,11.588,10.447
		c11.809,10.434,23.479,20.93,23.21,38.627c-0.008,0.48,0.62,0.971,1.123,1.711c1.601-15.584,1.164-29.719-7.368-43.961
		c-7.53-12.568-12.547-26.881-19.074-40.24c-1.307-2.678-2.004-5.656-3.584-10.25c11.799,9.954,18.118,21.325,23.103,33.598
		c1.057,2.604,1.903,5.027,4.457,6.924c11.011,8.171,21.803,16.644,32.631,25.062c5.544,4.312,5.05,10.16-1.154,14.18
		c-1.979,1.283-4.104,2.34-6.097,3.604c-2.181,1.381-2.99,3.43-0.873,5.219c1.14,0.967,2.193,2.027,3.214,3.124
		c5.729,1.567,11.42,5.856,15.62,8.837c6.564,4.659,13.969,9.715,18.986,16.118c0.421,0.536,0.709,1.098,0.896,1.665
		c0.314,0.171,0.595,0.369,0.845,0.587c1.682-10.226-2.416-19.983-3.381-30.657C698.954,150.059,709.898,160.871,723.61,167.778z"/>
	<path fill-rule="evenodd" fill="#53042E" d="M573.458,188.138c-0.953,1.427-1.692,2.934-2.339,4.479
		c-0.689,3.979-1.686,7.902-2.623,11.796c-1.777,7.38-2.309,14.229,0.503,20.494c1.012-7.819,3.373-15.635,6.431-22.747
		c0.353-0.819,0.725-1.678,1.11-2.547c1.479-6.214,5.292-11.78,8.803-17.372c0.067-0.107,0.146-0.192,0.226-0.273
		c0.326-0.724,0.679-1.438,1.062-2.145c-3.337-0.174-6.417,1.206-9.115,3.295C576.031,184.67,574.663,186.335,573.458,188.138z"/>
	<path fill-rule="evenodd" fill="#53042E" d="M579.879,232.875c-1.062,2.054-2.619,3.644-4.605,4.68
		c-0.612,0.728-1.642,1.347-3.144,1.808c-2.166,0.663-4.326,1.548-3.42,4.284c0.913,2.749,3.424,3.098,5.891,2.441
		c4.707-1.25,7.331-3.974,6.351-9.292C580.701,235.435,580.336,234.13,579.879,232.875z"/>
	<path fill-rule="evenodd" fill="#53042E" d="M600,170.065c-3.313-8.627-3.558-16.628,5.134-22.629
		c2.45-1.694,3.908-4.033,3.521-7.252c-1.154-9.54-6.448-16.867-12.631-23.701c-1.33-1.467-1.04,0.793-1.341,0.796
		c-5.351,0.033-3.774,3.204-3.188,6.348c0.824,4.389,2.149,8.935,1.712,13.129c0.65,0.772,1.071,1.795,1.098,3.076
		c0.238,11.613-6.361,22-16.705,24.571c0.054,1.421,0.211,2.886,0.492,4.405c0.34,1.845,0.405,3.774,0.312,5.651
		c-0.06,1.21,0.126,2.684-0.1,3.767c1.859-1.635,3.839-3.138,5.91-4.522c0.455-0.305,0.898-0.31,1.268-0.146
		c0.064-0.078,0.112-0.161,0.183-0.236c2.003-2.141,4.004-0.587,5.524,0.853c3.076,2.912,6.18,5.852,8.873,9.111
		c11.158,13.484,16.406,28.963,15.63,46.564c3.97-11.541,5.696-22.883-1.248-33.854C609.145,187.624,603.581,179.382,600,170.065z"
		/>
	<path fill-rule="evenodd" fill="#53042E" d="M633.987,153.381c-7.193,5.475-12.959,3.77-16.539-4.521
		c-1.649-3.817-3.024-7.751-4.523-11.635c-0.047,9.207-0.703,18.106-1.454,27.016c-0.283,3.355,0.518,6.602,2.373,9.451
		c0.864,1.322,1.688,3.052,3.691,2.867c1.984-0.187,2.65-1.882,3.036-3.463c0.498-2.043,0.991-4.178,0.911-6.252
		c-0.137-3.612,1.514-4.477,4.75-4.08c1.845,0.227,3.842,0.275,5.614-0.188c3.714-0.969,5.091,0.391,5.558,4.027
		c0.957,7.469,2.277,14.891,3.39,22.342c0.267,1.784,0.924,4.366-2.083,3.974c-1.797-0.232-2.612,0.174-2.866,0.935
		c4.339,0.903,7.94,2.944,11.097,5.791c0.001-0.135,0.002-0.27,0-0.398c-0.217-15.17-2.243-30.034-7.627-44.343
		C638.066,151.586,637.073,151.034,633.987,153.381z"/>
</g>
</svg>
